<svg width="683" height="558" viewBox="0 0 683 558" fill="none" xmlns="http://www.w3.org/2000/svg">
<g filter="url(#filter0_d_77_218)">
<path d="M668.517 0C676.751 4.62774e-05 681.457 9.39522 676.525 15.9893L486.789 269.684C484.127 273.242 484.134 278.129 486.803 281.681L676.451 533.991C681.405 540.582 676.703 550 668.458 550H465.38C470.965 544.607 475.371 538.021 478.213 530.647C478.716 529.345 477.69 527.992 476.293 528.004C469.946 528.058 463.617 527.358 457.432 525.924C415.848 517.908 346.412 454.29 342.176 448.866C342.016 448.661 341.891 448.485 341.708 448.301L226.213 332.696C222.232 328.553 222.287 321.999 226.349 317.937C230.41 313.875 236.962 313.82 241.106 317.825C241.107 317.827 241.107 317.83 241.106 317.831C241.104 317.832 241.104 317.834 241.105 317.836L356.875 433.606C378.134 454.216 432.027 503.642 471.378 506.831H479.456C480.621 506.831 481.543 505.839 481.407 504.682C480.094 493.513 475.305 483.037 467.668 474.739C454.996 460.415 432.578 440.676 427.563 421.56C427.564 421.559 427.566 421.559 427.567 421.559C427.571 421.557 427.569 421.551 427.565 421.551C427.563 421.551 427.561 421.553 427.562 421.556C427.562 421.557 427.563 421.558 427.563 421.56C420.994 423.831 414.734 426.873 408.907 430.662C408.619 430.849 408.389 431.111 408.217 431.408C406.803 433.855 404.481 435.652 401.751 436.392C398.827 437.177 395.739 436.744 393.167 435.146C390.621 433.549 388.834 430.949 388.292 427.997C387.734 425.069 388.404 422.063 390.125 419.672C390.184 419.589 390.252 419.511 390.325 419.439C398.484 411.416 408.411 405.451 419.293 401.994C420.362 401.655 420.977 400.525 420.637 399.456C419.451 395.723 417.322 389.132 416.108 385.484C415.755 384.423 414.597 383.871 413.542 384.241C405.172 387.172 391.783 391.197 387.697 396.636C384.041 401.131 377.486 401.863 372.937 398.288C368.415 394.713 367.602 388.133 371.123 383.556C378.133 373.838 394.663 368.193 407.239 364.029C408.281 363.684 408.847 362.565 408.511 361.52L404.652 349.53C404.319 348.497 403.228 347.916 402.183 348.21C390.733 351.426 372.374 355.511 366.392 362.964C366.387 362.97 366.379 362.974 366.371 362.974C366.362 362.974 366.353 362.978 366.348 362.984C364.642 365.199 362.1 366.603 359.316 366.928C356.527 367.28 353.737 366.467 351.543 364.734C349.35 362.974 347.941 360.428 347.643 357.666C347.345 354.877 348.158 352.087 349.918 349.894C360.997 336.449 379.566 332.543 395.627 328.081C396.714 327.779 397.326 326.635 396.985 325.561L387.047 294.294C386.045 291.315 383.797 288.959 380.9 287.795C378.002 286.63 374.725 286.82 371.962 288.255C342.647 305.765 315.468 294.995 296.756 271.492C296.001 270.543 294.582 270.442 293.724 271.3L289.335 275.689C266.126 305.425 231.245 303.232 207.333 277.477C199.902 269.621 199.429 268.236 194.766 262.861C194.073 262.063 192.873 261.953 192.042 262.606L157.541 289.709C157.534 289.714 157.53 289.722 157.53 289.73C157.53 289.739 157.526 289.748 157.519 289.753C149.997 295.657 145.398 304.508 144.883 314.036C144.369 323.569 147.97 332.858 154.768 339.548L156.832 341.564C157.652 342.366 157.632 343.691 156.763 344.44C150.177 350.125 141.146 356.684 148.323 365.735C156.601 374.944 165.977 364.798 172.173 359.143C172.936 358.446 174.1 358.489 174.838 359.211L198.06 381.921C198.824 382.668 198.866 383.887 198.088 384.619C193.386 389.043 186.02 393.042 186.453 400.115C186.453 400.122 186.447 400.129 186.44 400.129C186.433 400.129 186.427 400.135 186.427 400.143C186.84 405.688 191.441 409.987 196.988 410.041C203.31 409.968 209.126 402.831 213.306 399.183C214.041 398.542 215.127 398.624 215.824 399.306L239.207 422.201C239.977 422.956 240.011 424.188 239.216 424.917C234.552 429.193 227.316 433.128 227.184 440.007C227.184 440.014 227.178 440.021 227.17 440.021C227.163 440.021 227.157 440.027 227.157 440.034C227.133 442.873 228.217 445.575 230.217 447.604C232.194 449.634 234.902 450.772 237.718 450.799C244.268 450.652 250.173 443.016 254.468 439.426C255.192 438.821 256.238 438.92 256.913 439.578L280.194 462.277C281.023 463.086 280.994 464.427 280.132 465.2C277.667 467.412 274.943 469.853 272.438 472.004C269.215 474.848 268.024 479.343 269.405 483.405C270.786 487.467 274.496 490.284 278.775 490.582C285.325 490.875 291.301 483.516 295.589 479.748C296.331 479.096 297.434 479.183 298.134 479.879C305.797 487.498 313.775 494.801 321.935 501.901C322.834 502.684 322.859 504.073 321.973 504.87C319.76 506.861 317.353 508.924 315.065 510.866L315.091 510.839C311.76 513.737 310.596 518.394 312.167 522.511C313.71 526.654 317.637 529.39 322.051 529.417C328.657 529.244 334.856 521.273 339.141 517.728C339.811 517.173 340.766 517.22 341.447 517.761C350.037 524.58 358.865 530.998 367.95 537.167C369.024 537.897 369.137 539.441 368.168 540.307C366.407 541.88 364.597 543.466 362.89 544.935C361.381 546.268 359.258 548.057 357.562 550H14.0054C7.49996 550 2.72589 543.886 4.30322 537.575L136.762 7.5752C137.875 3.1234 141.875 0.000206944 146.463 0H299.296L294.092 23.873C293.859 24.9432 294.53 26.0022 295.597 26.248L480.913 68.917C481.865 69.1363 482.836 68.6355 483.209 67.7324L510.776 1.05371C510.928 0.683093 511.077 0.332705 511.221 0H668.517ZM262.113 213.484C258.809 212.455 255.235 213.079 252.5 215.137L211.741 247.134C210.873 247.815 210.719 249.07 211.408 249.932C215.408 254.94 219.65 259.728 224.09 264.316C236.569 276.86 250.859 280.149 263.562 271.416C265.461 270.11 281.277 253.823 282.918 252.206C283.191 251.938 283.362 251.775 283.398 251.752C283.4 251.751 283.401 251.751 283.403 251.751C283.413 251.751 283.42 251.739 283.415 251.73C277.624 241.743 272.835 231.216 269.073 220.309C267.962 217.032 265.389 214.513 262.113 213.484ZM279.141 102.316C278.063 102.084 277.013 102.77 276.778 103.848L258.131 189.336C257.849 190.631 258.884 191.837 260.208 191.872C266.583 192.04 272.791 194.183 277.932 198.039C291.852 209.332 289.334 221.032 300.302 238.771C314.357 261.573 329.659 287.653 361.723 269.807C372.504 263.812 385.675 264.681 395.547 271.783C396.652 272.577 398.252 272.198 398.774 270.942L452.396 141.947C452.883 140.776 452.277 139.466 451.036 139.209C430.403 134.932 296.849 106.135 279.141 102.316ZM291.086 46.9238C290.003 46.6752 289.034 47.3829 288.795 48.4688L282.049 79.2461C281.812 80.3312 282.403 81.3818 283.489 81.6143C302.627 85.7062 443.502 116.076 459.884 119.607C460.828 119.811 461.706 119.295 462.077 118.404L473.789 90.2471C474.099 89.5013 473.906 88.9243 473.119 88.7432C458.375 85.351 310.379 51.3511 291.086 46.9238Z" fill="white"/>
</g>
<defs>
<filter id="filter0_d_77_218" x="0" y="0" width="682.535" height="558" filterUnits="userSpaceOnUse" color-interpolation-filters="sRGB">
<feFlood flood-opacity="0" result="BackgroundImageFix"/>
<feColorMatrix in="SourceAlpha" type="matrix" values="0 0 0 0 0 0 0 0 0 0 0 0 0 0 0 0 0 0 127 0" result="hardAlpha"/>
<feOffset dy="4"/>
<feGaussianBlur stdDeviation="2"/>
<feComposite in2="hardAlpha" operator="out"/>
<feColorMatrix type="matrix" values="0 0 0 0 0 0 0 0 0 0 0 0 0 0 0 0 0 0 0.25 0"/>
<feBlend mode="normal" in2="BackgroundImageFix" result="effect1_dropShadow_77_218"/>
<feBlend mode="normal" in="SourceGraphic" in2="effect1_dropShadow_77_218" result="shape"/>
</filter>
</defs>
</svg>
