<svg width="800" height="650" viewBox="0 0 800 650" fill="none" xmlns="http://www.w3.org/2000/svg">
<path d="M789.478 0C797.712 0.000252238 802.417 9.3953 797.486 15.9893L570.261 319.809C567.6 323.367 567.605 328.254 570.275 331.806L797.412 633.991C802.366 640.582 797.663 650 789.417 650H545.776C552.499 643.508 557.778 635.55 561.129 626.638C561.62 625.331 560.595 623.979 559.199 623.998C551.521 624.105 543.864 623.281 536.383 621.546C487.059 612.039 404.576 536.337 400.12 530.41C399.963 530.202 399.852 530.044 399.668 529.86L263.125 393.186C258.42 388.289 258.484 380.544 263.285 375.743C268.084 370.944 275.827 370.878 280.724 375.611V375.624L417.542 512.443C442.667 536.8 506.359 595.213 552.865 598.982H562.803C563.968 598.982 564.89 597.99 564.761 596.832C563.277 583.487 557.594 570.959 548.481 561.056C533.505 544.127 507.009 520.799 501.083 498.206C501.084 498.206 501.086 498.206 501.087 498.205C501.092 498.203 501.09 498.196 501.085 498.196C501.083 498.197 501.081 498.199 501.082 498.202C501.082 498.203 501.082 498.205 501.083 498.206C493.289 500.9 485.863 504.514 478.955 509.016C478.667 509.203 478.437 509.465 478.267 509.764C476.6 512.697 473.836 514.854 470.58 515.736C467.123 516.664 463.474 516.152 460.433 514.264C457.425 512.375 455.312 509.303 454.672 505.814C454.01 502.345 454.809 498.783 456.854 495.953C456.914 495.87 456.981 495.792 457.054 495.72C466.79 486.14 478.655 479.042 491.665 474.972C492.735 474.637 493.349 473.507 493.01 472.438C491.596 467.981 488.874 459.554 487.426 455.217C487.072 454.156 485.913 453.61 484.858 453.981C474.994 457.455 458.854 462.248 453.968 468.751C449.648 474.064 441.902 474.929 436.526 470.704C431.181 466.479 430.221 458.702 434.381 453.293C442.731 441.72 462.502 435.034 477.406 430.103C478.448 429.757 479.014 428.638 478.677 427.593L473.898 412.743C473.565 411.71 472.476 411.129 471.432 411.424C457.927 415.24 435.919 420.074 428.79 428.957C428.783 428.965 428.774 428.969 428.764 428.969C428.754 428.969 428.745 428.974 428.739 428.981C426.723 431.598 423.718 433.258 420.427 433.642C417.131 434.058 413.834 433.097 411.242 431.049C408.649 428.969 406.984 425.961 406.632 422.696C406.28 419.4 407.24 416.102 409.321 413.51C422.496 397.521 444.637 392.947 463.701 387.632C464.787 387.329 465.401 386.185 465.059 385.11L453.201 347.802C452.017 344.281 449.36 341.497 445.936 340.121C442.511 338.745 438.638 338.969 435.374 340.665C400.592 361.44 368.356 348.53 346.235 320.527C345.483 319.575 344.063 319.474 343.205 320.332L337.723 325.814C310.294 360.957 269.071 358.364 240.811 327.927C231.91 318.516 231.456 316.963 225.732 310.392C225.038 309.595 223.84 309.489 223.008 310.142L181.965 342.383C181.957 342.389 181.953 342.399 181.953 342.409C181.953 342.419 181.949 342.428 181.941 342.435C173.051 349.412 167.614 359.873 167.006 371.134C166.398 382.4 170.655 393.377 178.689 401.283L181.403 403.936C182.223 404.737 182.203 406.063 181.336 406.815C173.532 413.592 162.485 421.402 171.072 432.232C180.964 443.236 192.182 430.855 199.501 424.22C200.267 423.526 201.434 423.568 202.172 424.29L230.1 451.604C230.864 452.352 230.909 453.569 230.138 454.31C224.597 459.634 215.616 464.376 216.134 472.863C216.134 472.867 216.133 472.871 216.13 472.874L216.109 472.884C216.106 472.887 216.104 472.891 216.104 472.896C216.592 479.449 222.03 484.53 228.585 484.594C236.175 484.506 243.149 475.804 248.104 471.56C248.844 470.926 249.93 471.01 250.626 471.691L278.732 499.211C279.502 499.966 279.539 501.196 278.751 501.934C273.253 507.081 264.43 511.749 264.272 520.008C264.272 520.016 264.264 520.023 264.255 520.023C264.247 520.024 264.24 520.031 264.24 520.04C264.212 523.395 265.492 526.588 267.856 528.985C270.192 531.386 273.393 532.731 276.721 532.763C284.579 532.586 291.653 523.289 296.747 519.132C297.477 518.536 298.52 518.638 299.195 519.296L327.198 546.599C328.027 547.407 327.999 548.748 327.137 549.521C324.148 552.203 320.813 555.197 317.753 557.823C313.945 561.184 312.536 566.496 314.168 571.297C315.801 576.098 320.186 579.426 325.243 579.778C333.105 580.13 340.267 571.153 345.351 566.769C346.099 566.124 347.201 566.213 347.901 566.909C357.12 576.089 366.728 584.878 376.557 593.422C377.456 594.204 377.481 595.594 376.597 596.393C373.9 598.829 370.938 601.366 368.13 603.75L368.163 603.719C364.226 607.143 362.849 612.648 364.706 617.513C366.53 622.41 371.171 625.642 376.388 625.674C384.302 625.466 391.721 615.791 396.791 611.691C397.467 611.144 398.42 611.193 399.101 611.734C409.44 619.952 420.07 627.674 431.016 635.095C432.091 635.824 432.204 637.368 431.236 638.234C429.046 640.195 426.782 642.181 424.652 644.014C422.868 645.589 420.358 647.704 418.354 650H10.0044C3.49922 650 -1.27407 643.886 0.303223 637.575L157.754 7.5752C158.867 3.12331 162.867 1.37591e-05 167.456 0H349.497L343.269 28.5645C343.036 29.6347 343.707 30.6937 344.775 30.9395L564.434 81.5166C565.386 81.7359 566.358 81.2351 566.731 80.332L599.427 1.24512C599.607 0.807108 599.784 0.393201 599.954 0H789.478ZM305.551 252.3C301.647 251.084 297.422 251.82 294.19 254.252L245.735 292.291C244.867 292.972 244.714 294.227 245.401 295.09C250.195 301.112 255.284 306.865 260.616 312.374C276.022 327.86 293.764 331.41 309.264 319.295C311.08 317.876 326.759 301.455 328.383 299.818C329.682 298.511 330.608 297.587 330.706 297.524C330.708 297.523 330.71 297.523 330.712 297.523C330.724 297.523 330.732 297.51 330.726 297.5C323.883 285.697 318.223 273.255 313.777 260.365C312.465 256.493 309.424 253.516 305.551 252.3ZM325.263 120.83C324.185 120.598 323.194 121.298 322.959 122.375L300.744 224.229C300.461 225.524 301.495 226.731 302.82 226.748C310.522 226.849 318.041 229.392 324.247 234.047C340.697 247.393 337.72 261.22 350.683 282.184C367.294 309.133 385.378 339.954 423.272 318.862C436.161 311.695 451.94 312.83 463.651 321.494C464.745 322.303 466.344 321.923 466.867 320.667L530.603 167.343C531.09 166.172 530.492 164.865 529.25 164.608C506.195 159.846 344.544 124.988 325.263 120.83ZM339.462 55.3789C338.379 55.1305 337.402 55.837 337.164 56.9229L329.034 94.0117C328.796 95.0971 329.4 96.1506 330.487 96.3828C351.895 100.957 521.848 137.596 539.616 141.427C540.559 141.63 541.386 141.103 541.756 140.212L555.807 106.432C556.117 105.686 555.941 105.113 555.154 104.932C539.039 101.223 360.94 60.3072 339.462 55.3789Z" fill="url(#paint0_linear_77_206)"/>
<defs>
<linearGradient id="paint0_linear_77_206" x1="-0.000488281" y1="325" x2="798.999" y2="325" gradientUnits="userSpaceOnUse">
<stop stop-color="#FF7729"/>
<stop offset="1" stop-color="#CC4B00"/>
</linearGradient>
</defs>
</svg>
