<svg width="658" height="558" viewBox="0 0 658 558" fill="none" xmlns="http://www.w3.org/2000/svg">
<g filter="url(#filter0_d_77_218)">
<path d="M622.98 0C647.683 7.19284e-05 661.8 28.1857 647.005 47.9678L490.165 257.675C482.182 268.35 482.2 283.012 490.209 293.668L646.781 501.975C661.644 521.748 647.536 550 622.801 550H459.776C465.361 544.607 469.767 538.021 472.609 530.647C473.112 529.345 472.086 527.992 470.689 528.004C464.342 528.058 458.013 527.358 451.828 525.924C410.244 517.909 340.808 454.29 336.572 448.866C336.412 448.661 336.287 448.485 336.104 448.301L220.609 332.696C216.628 328.553 216.683 321.999 220.745 317.937C224.806 313.875 231.358 313.82 235.502 317.825C235.503 317.827 235.503 317.83 235.502 317.831C235.5 317.832 235.5 317.834 235.501 317.836L351.271 433.606C372.53 454.216 426.423 503.642 465.774 506.831H473.852C475.017 506.831 475.939 505.839 475.803 504.682C474.49 493.513 469.701 483.037 462.064 474.739C449.392 460.415 426.974 440.676 421.959 421.56C421.96 421.559 421.962 421.559 421.963 421.559C421.967 421.557 421.965 421.551 421.961 421.551C421.959 421.551 421.957 421.553 421.958 421.556C421.958 421.557 421.959 421.558 421.959 421.56C415.39 423.831 409.13 426.873 403.303 430.662C403.015 430.849 402.785 431.111 402.613 431.408C401.199 433.855 398.877 435.652 396.147 436.392C393.223 437.177 390.135 436.744 387.562 435.146C385.017 433.549 383.23 430.949 382.688 427.997C382.13 425.069 382.8 422.063 384.521 419.672C384.58 419.589 384.648 419.511 384.721 419.439C392.88 411.416 402.806 405.451 413.689 401.994C414.758 401.655 415.373 400.525 415.033 399.456C413.847 395.723 411.718 389.132 410.504 385.484C410.151 384.423 408.993 383.871 407.938 384.241C399.568 387.172 386.179 391.197 382.093 396.636C378.437 401.131 371.882 401.863 367.333 398.288C362.811 394.713 361.998 388.133 365.519 383.556C372.529 373.838 389.059 368.193 401.635 364.029C402.677 363.684 403.243 362.565 402.907 361.52L399.048 349.53C398.715 348.497 397.624 347.916 396.579 348.21C385.129 351.426 366.77 355.511 360.788 362.964C360.783 362.97 360.775 362.974 360.767 362.974C360.758 362.974 360.749 362.978 360.744 362.984C359.038 365.199 356.496 366.603 353.712 366.928C350.923 367.28 348.133 366.467 345.939 364.734C343.746 362.974 342.337 360.428 342.039 357.666C341.741 354.877 342.554 352.087 344.314 349.894C355.393 336.449 373.962 332.543 390.023 328.081C391.11 327.779 391.722 326.635 391.381 325.561L381.443 294.294C380.441 291.315 378.193 288.959 375.296 287.795C372.398 286.63 369.121 286.82 366.358 288.255C337.043 305.765 309.864 294.995 291.152 271.492C290.397 270.543 288.978 270.442 288.12 271.3L283.731 275.689C260.522 305.425 225.641 303.232 201.729 277.477C194.298 269.621 193.825 268.236 189.162 262.861C188.469 262.063 187.269 261.953 186.438 262.606L151.937 289.709C151.93 289.714 151.926 289.722 151.926 289.73C151.926 289.739 151.922 289.748 151.915 289.753C144.393 295.657 139.794 304.508 139.279 314.036C138.765 323.569 142.366 332.858 149.164 339.548L151.228 341.564C152.048 342.366 152.028 343.691 151.159 344.44C144.573 350.125 135.542 356.684 142.719 365.735C150.997 374.944 160.373 364.798 166.569 359.143C167.332 358.446 168.496 358.489 169.234 359.211L192.456 381.921C193.22 382.668 193.262 383.887 192.484 384.619C187.782 389.043 180.416 393.042 180.849 400.115C180.849 400.122 180.843 400.129 180.836 400.129C180.829 400.129 180.823 400.135 180.823 400.143C181.236 405.688 185.837 409.987 191.384 410.041C197.706 409.968 203.522 402.831 207.702 399.183C208.437 398.542 209.523 398.624 210.22 399.306L233.603 422.201C234.373 422.956 234.407 424.188 233.612 424.917C228.948 429.193 221.712 433.128 221.58 440.007C221.58 440.014 221.574 440.021 221.566 440.021C221.559 440.021 221.553 440.027 221.553 440.034C221.529 442.873 222.612 445.575 224.613 447.604C226.59 449.634 229.298 450.772 232.114 450.799C238.664 450.652 244.569 443.016 248.864 439.426C249.588 438.821 250.634 438.92 251.309 439.578L274.59 462.277C275.419 463.086 275.39 464.427 274.528 465.2C272.063 467.412 269.339 469.853 266.834 472.004C263.611 474.848 262.42 479.343 263.801 483.405C265.182 487.467 268.892 490.284 273.171 490.582C279.721 490.875 285.697 483.516 289.985 479.748C290.727 479.096 291.83 479.183 292.53 479.879C300.193 487.498 308.171 494.801 316.331 501.901C317.23 502.684 317.255 504.073 316.369 504.87C314.156 506.861 311.749 508.924 309.461 510.866L309.487 510.839C306.156 513.737 304.992 518.394 306.562 522.511C308.106 526.654 312.033 529.39 316.447 529.417C323.053 529.244 329.252 521.273 333.537 517.728C334.207 517.173 335.162 517.22 335.843 517.761C344.433 524.58 353.261 530.998 362.346 537.167C363.42 537.897 363.533 539.441 362.564 540.307C360.803 541.88 358.993 543.466 357.286 544.935C355.777 546.268 353.654 548.057 351.958 550H34.0146C14.4985 550 0.178184 531.659 4.91016 512.726L127.372 22.7266C130.71 9.37051 142.71 0 156.477 0H293.692L288.488 23.873C288.255 24.9432 288.926 26.0022 289.993 26.248L475.309 68.917C476.261 69.1363 477.232 68.6355 477.605 67.7324L505.172 1.05371C505.324 0.683093 505.473 0.332705 505.617 0H622.98ZM256.509 213.484C253.205 212.455 249.631 213.079 246.896 215.137L206.137 247.134C205.269 247.815 205.115 249.07 205.804 249.932C209.804 254.94 214.046 259.728 218.486 264.316C230.965 276.86 245.255 280.149 257.958 271.416C259.857 270.11 275.673 253.823 277.314 252.206C277.587 251.938 277.758 251.775 277.794 251.752C277.796 251.751 277.797 251.751 277.799 251.751C277.809 251.751 277.816 251.739 277.811 251.73C272.02 241.743 267.231 231.216 263.469 220.309C262.358 217.032 259.785 214.513 256.509 213.484ZM273.537 102.316C272.459 102.084 271.409 102.77 271.174 103.848L252.527 189.336C252.245 190.631 253.28 191.837 254.604 191.872C260.979 192.04 267.187 194.183 272.328 198.039C286.248 209.332 283.73 221.032 294.698 238.771C308.753 261.573 324.055 287.653 356.119 269.807C366.9 263.812 380.071 264.681 389.943 271.783C391.048 272.577 392.648 272.198 393.17 270.942L446.792 141.947C447.279 140.776 446.673 139.466 445.432 139.209C424.799 134.932 291.245 106.135 273.537 102.316ZM285.482 46.9238C284.399 46.6752 283.43 47.3829 283.191 48.4688L276.445 79.2461C276.208 80.3312 276.799 81.3818 277.885 81.6143C297.023 85.7062 437.898 116.076 454.28 119.607C455.224 119.811 456.102 119.295 456.473 118.404L468.185 90.2471C468.495 89.5013 468.302 88.9243 467.515 88.7432C452.771 85.351 304.775 51.3511 285.482 46.9238Z" fill="white"/>
</g>
<defs>
<filter id="filter0_d_77_218" x="0" y="0" width="657.035" height="558" filterUnits="userSpaceOnUse" color-interpolation-filters="sRGB">
<feFlood flood-opacity="0" result="BackgroundImageFix"/>
<feColorMatrix in="SourceAlpha" type="matrix" values="0 0 0 0 0 0 0 0 0 0 0 0 0 0 0 0 0 0 127 0" result="hardAlpha"/>
<feOffset dy="4"/>
<feGaussianBlur stdDeviation="2"/>
<feComposite in2="hardAlpha" operator="out"/>
<feColorMatrix type="matrix" values="0 0 0 0 0 0 0 0 0 0 0 0 0 0 0 0 0 0 0.25 0"/>
<feBlend mode="normal" in2="BackgroundImageFix" result="effect1_dropShadow_77_218"/>
<feBlend mode="normal" in="SourceGraphic" in2="effect1_dropShadow_77_218" result="shape"/>
</filter>
</defs>
</svg>
